<svg id="visual" viewBox="0 0 900 600" width="900" height="600" xmlns="http://www.w3.org/2000/svg" xmlns:xlink="http://www.w3.org/1999/xlink" version="1.1"><g stroke-width="1" stroke-linejoin="bevel"><path d="M402.7 281L427.7 359L542.3 273Z" fill="#2c2c2c" stroke="#2c2c2c"></path><path d="M427.7 359L539.3 370L542.3 273Z" fill="#5d5d5d" stroke="#5d5d5d"></path><path d="M427.7 359L539.3 442L539.3 370Z" fill="#4c4c4c" stroke="#4c4c4c"></path><path d="M539.3 370L670.9 337L542.3 273Z" fill="#2c2c2c" stroke="#2c2c2c"></path><path d="M529.3 132L383.7 153L402.7 281Z" fill="#3c3c3c" stroke="#3c3c3c"></path><path d="M542.3 273L529.3 132L402.7 281Z" fill="#343434" stroke="#343434"></path><path d="M663.9 465L670.9 337L539.3 370Z" fill="#252525" stroke="#252525"></path><path d="M542.3 273L673.9 203L529.3 132Z" fill="#3c3c3c" stroke="#3c3c3c"></path><path d="M402.7 281L278.1 347L427.7 359Z" fill="#343434" stroke="#343434"></path><path d="M427.7 359L382.7 500L539.3 442Z" fill="#6e6e6e" stroke="#6e6e6e"></path><path d="M216.1 243L278.1 347L402.7 281Z" fill="#2c2c2c" stroke="#2c2c2c"></path><path d="M298.1 484L382.7 500L427.7 359Z" fill="#4c4c4c" stroke="#4c4c4c"></path><path d="M670.9 337L673.9 203L542.3 273Z" fill="#2c2c2c" stroke="#2c2c2c"></path><path d="M673.9 203L600.9 92L529.3 132Z" fill="#252525" stroke="#252525"></path><path d="M529.3 132L414.7 0L383.7 153Z" fill="#444444" stroke="#444444"></path><path d="M654.9 600L663.9 465L539.3 442Z" fill="#444444" stroke="#444444"></path><path d="M539.3 442L663.9 465L539.3 370Z" fill="#777777" stroke="#777777"></path><path d="M278.1 347L298.1 484L427.7 359Z" fill="#4c4c4c" stroke="#4c4c4c"></path><path d="M383.7 153L216.1 243L402.7 281Z" fill="#2c2c2c" stroke="#2c2c2c"></path><path d="M278.1 347L149.6 443L298.1 484Z" fill="#5d5d5d" stroke="#5d5d5d"></path><path d="M398.7 600L478.3 600L382.7 500Z" fill="#6e6e6e" stroke="#6e6e6e"></path><path d="M382.7 500L478.3 600L539.3 442Z" fill="#545454" stroke="#545454"></path><path d="M600.9 92L485.3 0L529.3 132Z" fill="#343434" stroke="#343434"></path><path d="M383.7 153L214.1 101L216.1 243Z" fill="#444444" stroke="#444444"></path><path d="M485.3 0L414.7 0L529.3 132Z" fill="#252525" stroke="#252525"></path><path d="M265.1 600L398.7 600L382.7 500Z" fill="#5d5d5d" stroke="#5d5d5d"></path><path d="M260.1 0L214.1 101L383.7 153Z" fill="#656565" stroke="#656565"></path><path d="M673.9 203L740.4 99L600.9 92Z" fill="#5d5d5d" stroke="#5d5d5d"></path><path d="M600.9 92L636.9 0L485.3 0Z" fill="#545454" stroke="#545454"></path><path d="M810.4 206L740.4 99L673.9 203Z" fill="#343434" stroke="#343434"></path><path d="M810.4 206L673.9 203L670.9 337Z" fill="#252525" stroke="#252525"></path><path d="M805.4 450L805.4 383L663.9 465Z" fill="#4c4c4c" stroke="#4c4c4c"></path><path d="M663.9 465L805.4 383L670.9 337Z" fill="#343434" stroke="#343434"></path><path d="M740.4 99L636.9 0L600.9 92Z" fill="#777777" stroke="#777777"></path><path d="M214.1 101L142.6 206L216.1 243Z" fill="#545454" stroke="#545454"></path><path d="M91.6 365L149.6 443L278.1 347Z" fill="#777777" stroke="#777777"></path><path d="M478.3 600L654.9 600L539.3 442Z" fill="#656565" stroke="#656565"></path><path d="M805.4 383L810.4 206L670.9 337Z" fill="#2c2c2c" stroke="#2c2c2c"></path><path d="M91.6 365L278.1 347L216.1 243Z" fill="#6e6e6e" stroke="#6e6e6e"></path><path d="M298.1 484L265.1 600L382.7 500Z" fill="#343434" stroke="#343434"></path><path d="M759.4 600L805.4 450L663.9 465Z" fill="#444444" stroke="#444444"></path><path d="M805.4 383L900 333L810.4 206Z" fill="#6e6e6e" stroke="#6e6e6e"></path><path d="M149.6 443L265.1 600L298.1 484Z" fill="#656565" stroke="#656565"></path><path d="M414.7 0L260.1 0L383.7 153Z" fill="#252525" stroke="#252525"></path><path d="M214.1 101L93.6 134L142.6 206Z" fill="#656565" stroke="#656565"></path><path d="M142.6 206L91.6 365L216.1 243Z" fill="#2c2c2c" stroke="#2c2c2c"></path><path d="M149.6 443L113.6 600L265.1 600Z" fill="#3c3c3c" stroke="#3c3c3c"></path><path d="M654.9 600L759.4 600L663.9 465Z" fill="#6e6e6e" stroke="#6e6e6e"></path><path d="M127.6 0L93.6 134L214.1 101Z" fill="#6e6e6e" stroke="#6e6e6e"></path><path d="M0 205L0 355L91.6 365Z" fill="#3c3c3c" stroke="#3c3c3c"></path><path d="M900 507L900 333L805.4 450Z" fill="#6e6e6e" stroke="#6e6e6e"></path><path d="M805.4 450L900 333L805.4 383Z" fill="#545454" stroke="#545454"></path><path d="M900 110L793.4 0L740.4 99Z" fill="#545454" stroke="#545454"></path><path d="M900 333L900 223L810.4 206Z" fill="#656565" stroke="#656565"></path><path d="M740.4 99L793.4 0L636.9 0Z" fill="#444444" stroke="#444444"></path><path d="M900 110L740.4 99L810.4 206Z" fill="#656565" stroke="#656565"></path><path d="M260.1 0L127.6 0L214.1 101Z" fill="#2c2c2c" stroke="#2c2c2c"></path><path d="M900 223L900 110L810.4 206Z" fill="#777777" stroke="#777777"></path><path d="M0 483L113.6 600L149.6 443Z" fill="#343434" stroke="#343434"></path><path d="M759.4 600L900 507L805.4 450Z" fill="#777777" stroke="#777777"></path><path d="M0 205L91.6 365L142.6 206Z" fill="#777777" stroke="#777777"></path><path d="M91.6 365L0 483L149.6 443Z" fill="#2c2c2c" stroke="#2c2c2c"></path><path d="M0 205L142.6 206L93.6 134Z" fill="#3c3c3c" stroke="#3c3c3c"></path><path d="M0 83L0 205L93.6 134Z" fill="#6e6e6e" stroke="#6e6e6e"></path><path d="M0 355L0 483L91.6 365Z" fill="#3c3c3c" stroke="#3c3c3c"></path><path d="M759.4 600L900 600L900 507Z" fill="#252525" stroke="#252525"></path><path d="M127.6 0L0 83L93.6 134Z" fill="#444444" stroke="#444444"></path><path d="M900 110L900 0L793.4 0Z" fill="#545454" stroke="#545454"></path><path d="M0 483L0 600L113.6 600Z" fill="#252525" stroke="#252525"></path><path d="M127.6 0L0 0L0 83Z" fill="#252525" stroke="#252525"></path></g></svg>